<svg width="22" height="22" viewBox="0 0 22 22" fill="none" xmlns="http://www.w3.org/2000/svg">
<g clip-path="url(#clip0_5705_10791)">
<path d="M17.418 0.916016H4.58464C4.36498 0.918545 4.15354 0.999869 3.9888 1.14518C4.64251 1.37517 5.21766 1.78571 5.64759 2.32921C6.07753 2.87271 6.34464 3.52692 6.41797 4.21602C6.43198 4.33784 6.43198 4.46086 6.41797 4.58268V20.166C6.41754 20.3413 6.46739 20.5131 6.56163 20.661C6.65586 20.8088 6.79052 20.9265 6.94964 21.0002C7.10912 21.0736 7.28634 21.0997 7.46022 21.0753C7.6341 21.0509 7.79732 20.9771 7.93047 20.8627L10.543 18.626L13.1555 20.8627C13.3215 21.0047 13.5328 21.0827 13.7513 21.0827C13.9698 21.0827 14.1811 21.0047 14.3471 20.8627L16.9596 18.626L19.5721 20.8627C19.7382 21.0047 19.9495 21.0827 20.168 21.0827C20.3006 21.0817 20.4316 21.0537 20.553 21.0002C20.7121 20.9265 20.8467 20.8088 20.941 20.661C21.0352 20.5131 21.0851 20.3413 21.0846 20.166V4.58268C21.0846 3.61022 20.6983 2.67759 20.0107 1.98996C19.3231 1.30232 18.3904 0.916016 17.418 0.916016ZM16.5013 13.7493H11.0013C10.7582 13.7493 10.525 13.6528 10.3531 13.4809C10.1812 13.309 10.0846 13.0758 10.0846 12.8327C10.0846 12.5896 10.1812 12.3564 10.3531 12.1845C10.525 12.0126 10.7582 11.916 11.0013 11.916H16.5013C16.7444 11.916 16.9776 12.0126 17.1495 12.1845C17.3214 12.3564 17.418 12.5896 17.418 12.8327C17.418 13.0758 17.3214 13.309 17.1495 13.4809C16.9776 13.6528 16.7444 13.7493 16.5013 13.7493ZM16.5013 10.0827H11.0013C10.7582 10.0827 10.525 9.9861 10.3531 9.8142C10.1812 9.64229 10.0846 9.40913 10.0846 9.16602C10.0846 8.9229 10.1812 8.68974 10.3531 8.51783C10.525 8.34593 10.7582 8.24935 11.0013 8.24935H16.5013C16.7444 8.24935 16.9776 8.34593 17.1495 8.51783C17.3214 8.68974 17.418 8.9229 17.418 9.16602C17.418 9.40913 17.3214 9.64229 17.1495 9.8142C16.9776 9.9861 16.7444 10.0827 16.5013 10.0827ZM16.5013 6.41602H11.0013C10.7582 6.41602 10.525 6.31944 10.3531 6.14753C10.1812 5.97562 10.0846 5.74246 10.0846 5.49935C10.0846 5.25623 10.1812 5.02308 10.3531 4.85117C10.525 4.67926 10.7582 4.58268 11.0013 4.58268H16.5013C16.7444 4.58268 16.9776 4.67926 17.1495 4.85117C17.3214 5.02308 17.418 5.25623 17.418 5.49935C17.418 5.74246 17.3214 5.97562 17.1495 6.14753C16.9776 6.31944 16.7444 6.41602 16.5013 6.41602ZM4.58464 4.58268V11.916H1.83464C1.59152 11.916 1.35836 11.8194 1.18645 11.6475C1.01455 11.4756 0.917969 11.2425 0.917969 10.9993V4.58268C0.917969 4.45435 0.917969 4.33518 0.917969 4.21602C0.966592 3.72979 1.20638 3.28279 1.58458 2.97335C1.96277 2.66392 2.44841 2.51739 2.93464 2.56602C3.42087 2.61464 3.86787 2.85442 4.1773 3.23262C4.48674 3.61082 4.63326 4.09645 4.58464 4.58268Z" fill="#26A2DC"/>
</g>
<defs>
<clipPath id="clip0_5705_10791">
<rect width="22" height="22" fill="white"/>
</clipPath>
</defs>
</svg>
