<svg width="20" height="22" viewBox="0 0 20 22" fill="none" xmlns="http://www.w3.org/2000/svg">
<path d="M18.8631 4.3118L10.9241 0.224518C10.342 -0.0748393 9.65571 -0.0748393 9.07369 0.224518L1.13543 4.3118C0.42227 4.67873 -0.0171254 5.43223 0.000511796 6.25016C0.0725942 9.62402 1.01503 18.3313 8.58291 21.6989C9.48471 22.1004 10.5153 22.1004 11.4171 21.6989C18.9842 18.3313 19.9267 9.62402 19.9995 6.25016C20.0164 5.43223 19.5762 4.67873 18.8631 4.3118ZM13.8894 10.0758L12.539 11.4249C12.4117 11.5522 12.3534 11.7352 12.3841 11.9144L12.7031 13.8189C12.779 14.2707 12.3159 14.6157 11.9202 14.4019L10.2508 13.5031C10.0936 13.4182 9.9057 13.4182 9.7485 13.5031L8.0791 14.4019C7.68342 14.6149 7.22025 14.2707 7.29617 13.8189L7.61517 11.9144C7.64508 11.7352 7.5868 11.5522 7.46027 11.4249L6.10988 10.0758C5.78934 9.75602 5.96648 9.19816 6.40894 9.13216L8.27541 8.85402C8.45102 8.82809 8.60285 8.71495 8.68183 8.55152L9.51615 6.81902C9.71399 6.40809 10.2861 6.40809 10.4839 6.81902L11.3182 8.55152C11.3972 8.71495 11.549 8.82809 11.7246 8.85402L13.5911 9.13216C14.0336 9.19816 14.2099 9.75602 13.8894 10.0758Z" fill="#26A2DC"/>
</svg>
