<svg width="22" height="22" viewBox="0 0 22 22" fill="none" xmlns="http://www.w3.org/2000/svg">
<g clip-path="url(#clip0_5705_10778)">
<path d="M11 6.01562C9.34149 6.01562 7.99219 4.66632 7.99219 3.00781C7.99219 1.3493 9.34149 0 11 0C12.6585 0 14.0078 1.3493 14.0078 3.00781C14.0078 4.66632 12.6585 6.01562 11 6.01562Z" fill="#26A2DC"/>
<path d="M13.6706 6.37114C12.9367 6.95495 12.0085 7.30429 11 7.30429C9.99161 7.30429 9.06331 6.95491 8.32949 6.37109C6.96438 7.25139 6.05859 8.78534 6.05859 10.5269V11.816C6.05859 12.172 6.34717 12.4605 6.70312 12.4605H15.2969C15.6528 12.4605 15.9414 12.172 15.9414 11.816V10.5269C15.9414 8.78534 15.0357 7.25139 13.6706 6.37114Z" fill="#26A2DC"/>
<path d="M21.9685 14.8317C21.8927 14.5983 21.691 14.4283 21.4482 14.393L19.5567 14.1182L18.7108 12.4042C18.6022 12.1842 18.3782 12.0449 18.1329 12.0449C17.8875 12.0449 17.6635 12.1842 17.5549 12.4042L16.709 14.1182L14.8175 14.393C14.5747 14.4283 14.373 14.5983 14.2972 14.8317C14.2214 15.065 14.2846 15.3211 14.4603 15.4923L15.829 16.8265L15.5058 18.7103C15.4644 18.9521 15.5637 19.1965 15.7622 19.3407C15.9607 19.4849 16.2238 19.504 16.441 19.3898L18.1329 18.5004L19.8247 19.3898C19.9189 19.4394 20.0219 19.4638 20.1245 19.4638C20.2582 19.4638 20.3912 19.4223 20.5034 19.3407C20.7019 19.1965 20.8013 18.9521 20.7598 18.7103L20.4367 16.8265L21.8054 15.4923C21.9811 15.3211 22.0443 15.065 21.9685 14.8317Z" fill="#26A2DC"/>
<path d="M6.17112 16.8265L7.53981 15.4923C7.71546 15.3211 7.77871 15.065 7.70287 14.8317C7.62708 14.5983 7.42538 14.4283 7.18257 14.393L5.29108 14.1182L4.4452 12.4042C4.33662 12.1842 4.11253 12.0449 3.86723 12.0449C3.62192 12.0449 3.39784 12.1842 3.28925 12.4042L2.44337 14.1182L0.551886 14.393C0.309112 14.4283 0.107374 14.5983 0.0315773 14.8317C-0.0442625 15.065 0.0189875 15.3211 0.194644 15.4923L1.56333 16.8265L1.2402 18.7103C1.19874 18.9521 1.29812 19.1965 1.4966 19.3407C1.69511 19.4849 1.95821 19.504 2.17537 19.3898L3.86723 18.5003L5.55903 19.3897C5.65331 19.4393 5.7563 19.4638 5.85891 19.4638C5.99255 19.4638 6.12553 19.4223 6.23781 19.3407C6.43628 19.1965 6.53571 18.9521 6.49421 18.7103L6.17112 16.8265Z" fill="#26A2DC"/>
<path d="M14.3154 16.9301L12.4239 16.6553L11.578 14.9413C11.4694 14.7213 11.2453 14.582 11 14.582C10.7547 14.582 10.5306 14.7213 10.4221 14.9413L9.57618 16.6553L7.6847 16.9301C7.44193 16.9654 7.24019 17.1354 7.16439 17.3688C7.08855 17.6021 7.1518 17.8582 7.32746 18.0295L8.69614 19.3636L8.37301 21.2474C8.33155 21.4892 8.43094 21.7336 8.62941 21.8778C8.82792 22.022 9.09107 22.041 9.30819 21.9269L11 21.0375L12.6918 21.9269C12.7861 21.9765 12.8891 22.0009 12.9917 22.0009C13.1254 22.0009 13.2583 21.9594 13.3706 21.8778C13.5691 21.7336 13.6685 21.4893 13.627 21.2474L13.3039 19.3636L14.6726 18.0295C14.8482 17.8582 14.9115 17.6021 14.8356 17.3688C14.7599 17.1354 14.5582 16.9654 14.3154 16.9301Z" fill="#26A2DC"/>
</g>
<defs>
<clipPath id="clip0_5705_10778">
<rect width="22" height="22" fill="white"/>
</clipPath>
</defs>
</svg>
